<svg width="35" height="36" viewBox="0 0 35 36" fill="none" xmlns="http://www.w3.org/2000/svg">
<path d="M31.6939 0C33.5198 0 35 1.4802 35 3.30612V3.30612C35 5.13204 33.5198 6.61225 31.6939 6.61225H3.30612C1.4802 6.61225 0 5.13204 0 3.30612V3.30612C0 1.4802 1.4802 0 3.30612 0H31.6939Z" fill="#E64EEF"/>
<path d="M35 18C35 16.1741 33.5198 14.6939 31.6939 14.6939H3.30612C1.4802 14.6939 0 16.1741 0 18V18C0 19.8259 1.4802 21.3061 3.30612 21.3061H31.6939C33.5198 21.3061 35 19.8259 35 18V18Z" fill="#E64EEF"/>
<path d="M35 32.6939C35 30.868 33.5198 29.3878 31.6939 29.3878H3.30612C1.4802 29.3878 0 30.868 0 32.6939V32.6939C0 34.5198 1.4802 36 3.30612 36H31.6939C33.5198 36 35 34.5198 35 32.6939V32.6939Z" fill="#E64EEF"/>
</svg>
