<svg width="156" height="134" viewBox="0 0 156 134" fill="none" xmlns="http://www.w3.org/2000/svg">
    <g id="e_letter">
        <g id="logo_group_1">
            <path d="M70.7682 1.5642L0 54.7471H22.2049C45.758 36.6368 70.7682 17.7276 70.7682 17.7276V1.5642Z" fill="#758DE1"/>
            <path d="M22.2049 54.7471C14.3067 60.82 6.57244 66.8032 0 71.9533H50.2827L70.7682 54.7471H22.2049Z" fill="#9A78E5"/>
        </g>
        <path d="M70.7682 71.9533H50.2827L0 114.187H22.5983L70.7682 71.9533Z" fill="#C063EA"/>
        <path d="M0 134H70.7682V114.187H22.5983L0 134Z" fill="#E64EEF"/>
        <path d="M0 114.187V134L22.5983 114.187H0Z" fill="#D358EC"/>
        <path d="M70.7682 71.9533V54.7471L50.2827 71.9533H70.7682Z" fill="#AD6DE8"/>
        <path d="M0 54.7471V71.9533C6.57244 66.8032 14.3067 60.82 22.2049 54.7471H0Z" fill="#8782E3"/>
    </g>
    <g id="l_letter">
        <path d="M91.947 0V114.187H110.543V0H91.947Z" fill="#758DE1"/>
        <path d="M156 134V114.187H110.543V134H156Z" fill="#E64EEF"/>
        <path d="M110.543 114.187H91.947L110.543 134V114.187Z" fill="#AD6DE8"/>
    </g>
</svg>
